HIERARCHY
ROOT Hips
{
	OFFSET 0.000000 0.000000 0.000000
	CHANNELS 6 Xposition Yposition Zposition Zrotation Yrotation Xrotation 
	JOINT LHipJoint
	{
		OFFSET 0.000000 0.000000 0.000000
		CHANNELS 3 Zrotation Yrotation Xrotation
		JOINT LeftUpLeg
		{
			OFFSET 8.178360 -10.767780 5.035740
			CHANNELS 3 Zrotation Yrotation Xrotation
			JOINT LeftLeg
			{
				OFFSET 14.688660 -40.356780 0.000000
				CHANNELS 3 Zrotation Yrotation Xrotation
				JOINT LeftFoot
				{
					OFFSET 15.373200 -42.237540 0.000000
					CHANNELS 3 Zrotation Yrotation Xrotation
					JOINT LeftToeBase
					{
						OFFSET 0.945840 -2.598660 13.935300
						CHANNELS 3 Zrotation Yrotation Xrotation
						End Site
						{
							OFFSET 0.000000 0.000000 0.000000
						}
					}
				}
			}
		}
	}
	JOINT RHipJoint
	{
		OFFSET 0.000000 0.000000 0.000000
		CHANNELS 3 Zrotation Yrotation Xrotation
		JOINT RightUpLeg
		{
			OFFSET -7.833120 -10.767780 5.035740
			CHANNELS 3 Zrotation Yrotation Xrotation
			JOINT RightLeg
			{
				OFFSET -15.255180 -41.913300 0.000000
				CHANNELS 3 Zrotation Yrotation Xrotation
				JOINT RightFoot
				{
					OFFSET -15.409560 -42.337380 0.000000
					CHANNELS 3 Zrotation Yrotation Xrotation
					JOINT RightToeBase
					{
						OFFSET -0.988380 -2.715540 14.178900
						CHANNELS 3 Zrotation Yrotation Xrotation
						End Site
						{
							OFFSET 0.000000 0.000000 0.000000
						}
					}
				}
			}
		}
	}
	JOINT LowerBack
	{
		OFFSET 0.000000 0.000000 0.000000
		CHANNELS 3 Zrotation Yrotation Xrotation
		JOINT Spine
		{
			OFFSET 0.169620 12.213540 -1.160280
			CHANNELS 3 Zrotation Yrotation Xrotation
			JOINT Spine1
			{
				OFFSET 0.340320 12.293100 -0.256500
				CHANNELS 3 Zrotation Yrotation Xrotation
				JOINT Neck
				{
					OFFSET 0.000000 0.000000 0.000000
					CHANNELS 3 Zrotation Yrotation Xrotation
					JOINT Neck1
					{
						OFFSET -0.325020 10.477440 1.032120
						CHANNELS 3 Zrotation Yrotation Xrotation
						JOINT Head
						{
							OFFSET 0.624420 10.568160 -0.743820
							CHANNELS 3 Zrotation Yrotation Xrotation
							End Site
							{
								OFFSET 0.000000 0.000000 0.000000
							}
						}
					}
				}
				JOINT LeftShoulder
				{
					OFFSET 0.000000 0.000000 0.000000
					CHANNELS 3 Zrotation Yrotation Xrotation
					JOINT LeftArm
					{
						OFFSET 20.174460 7.205340 -1.867260
						CHANNELS 3 Zrotation Yrotation Xrotation
						JOINT LeftForeArm
						{
							OFFSET 29.898000 -0.000000 -0.000000
							CHANNELS 3 Zrotation Yrotation Xrotation
							JOINT LeftHand
							{
								OFFSET 20.901360 -0.000000 -0.000000
								CHANNELS 3 Zrotation Yrotation Xrotation
								JOINT LeftFingerBase
								{
									OFFSET 0.000000 0.000000 0.000000
									CHANNELS 3 Zrotation Yrotation Xrotation
									JOINT LeftHandIndex1
									{
										OFFSET 4.291560 -0.000000 -0.000000
										CHANNELS 3 Zrotation Yrotation Xrotation
										End Site
										{
											OFFSET 0.000000 0.000000 0.000000
										}
									}
								}
								JOINT LThumb
								{
									OFFSET 0.000000 0.000000 0.000000
									CHANNELS 3 Zrotation Yrotation Xrotation
									End Site
									{
										OFFSET 0.000000 0.000000 0.000000
									}
								}
							}
						}
					}
				}
				JOINT RightShoulder
				{
					OFFSET 0.000000 0.000000 0.000000
					CHANNELS 3 Zrotation Yrotation Xrotation
					JOINT RightArm
					{
						OFFSET -18.819600 8.244300 -2.427900
						CHANNELS 3 Zrotation Yrotation Xrotation
						JOINT RightForeArm
						{
							OFFSET -31.451400 -0.000000 -0.000000
							CHANNELS 3 Zrotation Yrotation Xrotation
							JOINT RightHand
							{
								OFFSET -20.665020 -0.000000 -0.000000
								CHANNELS 3 Zrotation Yrotation Xrotation
								JOINT RightFingerBase
								{
									OFFSET 0.000000 0.000000 0.000000
									CHANNELS 3 Zrotation Yrotation Xrotation
									JOINT RightHandIndex1
									{
										OFFSET -3.735180 -0.000000 -0.000000
										CHANNELS 3 Zrotation Yrotation Xrotation
										End Site
										{
											OFFSET 0.000000 0.000000 0.000000
										}
									}
								}
								JOINT RThumb
								{
									OFFSET 0.000000 0.000000 0.000000
									CHANNELS 3 Zrotation Yrotation Xrotation
									End Site
									{
										OFFSET 0.000000 0.000000 0.000000
									}
								}
							}
						}
					}
				}
			}
		}
	}
}
MOTION
Frames:	7
Frame Time:	0.0333333
-67.134474 107.358936 87.228084 8.016534 -87.785887 -8.271752 -2.825404 1.088570 1.753064 -14.204789 -9.421703 -14.040892 3.301878 12.372840 38.163560 0.804274 -5.013110 -5.406532 0.856700 -5.902800 -16.502600 0.531003 -1.029336 0.957632 23.862743 3.554601 -13.402876 -2.103750 -9.362541 28.615214 -0.231332 0.038941 -1.322937 -0.593400 -4.931900 13.714400 1.187176 1.394370 8.918412 1.875954 2.036247 1.791226 -0.315741 0.984041 -3.637399 -11.147039 -2.875662 -15.714286 3.897048 -2.830226 25.039419 3.531800 -2.685700 15.817300 -6.367104 -1.128503 -1.559435 -85.533694 1.542188 20.194936 16.861122 -23.657367 -4.218950 -1.187956 -2.329560 6.008842 18.503252 22.472628 8.462400 -7.125000 0.000000 0.000000 -10.947000 55.859700 -2.942000 5.355515 1.270000 -1.060100 83.430683 0.777415 16.052578 -15.983104 23.582067 -3.544342 0.307982 -0.151509 8.307628 -13.747149 8.029926 -2.029800 7.125000 0.000000 0.000000 9.249100 -21.644900 5.252700 
-66.320568 107.708526 86.997426 8.887800 -87.480205 -9.556390 -2.501683 1.123630 1.766996 -14.748221 -7.706307 -14.137158 4.843805 13.837013 44.010669 0.703739 -6.330546 -2.653695 0.320600 -3.639500 -10.064500 0.553600 -1.071075 0.978186 23.813633 3.226190 -12.553156 -1.799274 -8.818752 26.884932 -0.170011 -0.206872 -0.355522 -0.507000 -4.564400 12.670100 1.323294 1.455646 8.775682 1.925095 2.129178 1.791040 -0.327957 1.031380 -3.590657 -11.382221 -2.856701 -15.421385 3.909627 -2.813954 25.466776 3.589900 -2.745200 15.964800 -6.382115 -1.080535 -1.576091 -85.738226 2.380255 19.828674 16.654982 -23.409902 -4.110225 -1.271264 -2.330018 6.355015 19.304983 22.673080 8.936300 -7.125000 0.000000 0.000000 -10.135600 56.251400 -2.817200 5.356995 1.231014 -1.057436 83.078117 0.911517 16.094031 -15.965293 23.560713 -3.535791 0.310133 -0.152473 7.728780 -13.725371 8.164577 -2.061000 7.125000 0.000000 0.000000 9.258400 -21.505100 5.287900 
-65.512062 108.082740 86.769174 7.095440 -87.233855 -7.996069 -2.222030 1.172324 1.808130 -15.062388 -5.415083 -14.108929 6.278867 14.961326 49.128659 0.415889 -6.424226 3.214050 0.473600 -4.413700 -12.243700 0.553617 -1.125173 0.996042 23.838745 2.546961 -12.016689 -1.496896 -8.232488 25.059514 -0.241560 0.265327 0.934819 -0.627400 -5.068600 14.104300 1.657305 1.556993 8.364293 1.887599 2.295066 1.724097 -0.617981 1.116232 -3.497175 -11.198882 -2.818690 -15.180593 3.780797 -2.892318 25.880298 3.489600 -2.801200 16.112000 -6.397533 -1.048945 -1.587232 -85.683453 3.194266 19.488411 16.369638 -23.059157 -3.967203 -1.285104 -2.326182 6.827405 19.177769 22.730351 8.894100 -7.125000 0.000000 0.000000 -10.305300 56.287800 -2.874100 5.361242 1.174035 -1.065268 83.509999 1.129720 13.902536 -15.961179 23.578606 -3.535406 0.282323 -0.168949 9.168532 -13.255347 8.406301 -2.046800 7.125000 0.000000 0.000000 9.602200 -21.267200 5.542200 
-64.627278 108.344034 86.665254 7.981453 -86.902781 -9.010298 -2.030817 1.265387 1.882221 -15.362356 -3.549797 -13.450049 7.411706 15.697560 52.964409 0.312782 -5.967074 9.659496 0.238100 -3.140500 -8.670300 0.563846 -1.178254 1.003835 23.784214 1.869981 -11.579067 -1.174173 -7.567721 22.994312 -0.178119 -0.078425 2.188647 -0.607300 -4.987900 13.874100 1.851785 1.497825 7.953899 1.895174 2.231912 1.618766 -0.751331 1.087473 -3.479047 -11.066974 -2.685283 -15.062640 3.558455 -2.735503 26.017528 3.382800 -2.762700 16.124900 -6.403675 -1.018954 -1.599613 -85.851224 4.020714 18.663307 16.072268 -22.680209 -3.816821 -1.302858 -2.283343 7.121315 19.202049 22.201502 8.726300 -7.125000 0.000000 0.000000 -10.011800 55.723900 -2.653800 5.339628 1.108426 -1.096620 83.221316 0.644635 15.582152 -16.570116 24.402203 -3.808970 0.314466 -0.132837 7.424620 -13.865497 7.887892 -2.008700 7.125000 0.000000 0.000000 9.168200 -21.799200 5.173000 
-63.660198 108.552468 86.534310 8.000853 -86.307304 -9.002489 -1.946960 1.363407 2.019330 -15.521765 -1.574476 -12.321109 7.968402 15.980085 54.815666 0.385681 -7.384795 12.137653 0.385200 -3.985500 -11.035800 0.544117 -1.213349 0.982324 23.595260 1.108990 -11.787762 -0.998607 -7.176650 21.793596 -0.306599 0.625925 3.537687 -0.593600 -4.932300 13.715600 1.922231 1.429241 7.397134 2.003635 2.138881 1.522649 -0.622915 1.035742 -3.391958 -11.347267 -2.615193 -15.070222 3.510804 -2.518153 26.103222 3.444500 -2.728600 16.157200 -6.425778 -0.985877 -1.612952 -86.328182 4.604803 17.538730 15.751731 -22.239856 -3.647947 -1.275085 -2.333431 7.617195 18.400462 22.743853 8.519100 -7.125000 0.000000 0.000000 -11.182900 56.153400 -3.086500 5.337771 1.061391 -1.115309 82.906185 0.520080 15.464276 -16.939596 24.919452 -3.984455 0.297017 -0.135278 7.721320 -13.482490 8.131760 -2.010000 7.125000 0.000000 0.000000 9.446400 -21.564400 5.385300 
-62.549562 108.684612 86.486856 9.645874 -85.818786 -10.614661 -1.941829 1.482203 2.196353 -15.865157 0.060520 -10.613258 7.960158 15.885934 54.784886 0.438219 -9.184620 13.425967 0.394800 -4.034600 -11.173900 0.520917 -1.233390 0.938093 23.261246 0.736866 -12.200309 -0.885309 -6.934487 21.018562 -0.365367 0.903035 4.456437 -0.890800 -6.016100 16.831100 2.007522 1.321783 6.965301 2.006713 1.999195 1.428200 -0.697625 0.964319 -3.340215 -11.252044 -2.463739 -15.268426 3.418236 -2.292367 26.282023 3.417400 -2.647800 16.277100 -6.461185 -0.975171 -1.616474 -86.446233 4.974704 16.844134 15.252834 -21.547501 -3.396233 -1.307656 -2.366031 8.017318 18.245717 23.228370 8.612900 -7.125000 0.000000 0.000000 -11.590800 56.649800 -3.341100 5.345100 1.018279 -1.133961 82.852841 0.595205 15.403971 -17.072482 25.095615 -4.043027 0.310880 -0.138621 7.325358 -13.874079 8.296419 -2.113300 7.125000 0.000000 0.000000 9.148100 -21.377000 5.250200 
-61.317588 108.676206 86.470638 15.634793 -85.224156 -16.555603 -2.013469 1.636178 2.409100 -16.587178 1.631075 -8.430355 7.318330 15.364649 52.538840 0.537647 -9.206390 16.002610 0.306900 -3.561700 -9.846600 0.482870 -1.227167 0.860729 22.552071 1.232356 -12.810657 -0.892376 -7.009060 21.139423 -0.277929 0.291434 4.875201 -0.659200 -5.192800 14.459300 1.638858 1.261365 6.501646 1.946750 1.874970 1.391382 -0.653618 0.907403 -3.192989 -11.152576 -2.393985 -15.203349 3.233575 -2.178444 26.114026 3.322900 -2.600500 16.140500 -6.510194 -0.970451 -1.602596 -86.528500 5.108957 16.305464 14.653904 -20.688180 -3.108644 -1.372194 -2.274815 9.088924 18.325946 22.497982 8.418800 -7.125000 0.000000 0.000000 -11.090900 55.874500 -2.985300 5.346496 0.980691 -1.148688 82.628819 0.503434 15.907526 -17.393252 25.525036 -4.195268 0.317309 -0.120809 6.347334 -13.896676 8.138032 -2.074300 7.125000 0.000000 0.000000 9.136400 -21.550300 5.206900 
